REM DIRINDEX 1\2,1\3,1\4,1\5
REM DIRNAME folder01,folder02,folder03,folder04,folder05
TITLE ""
FILE "1Q_t_1600-1609.mp3" MP3
  TRACK 01 AUDIO
    TITLE "3:cjc004_5706"
    INDEX 01 00:00:00
  TRACK 02 AUDIO
    TITLE "0:"
    INDEX 01 00:01:01
  TRACK 03 AUDIO
    TITLE "4:cjc004_5707"
    INDEX 01 00:01:30
  TRACK 04 AUDIO
    TITLE "0:"
    INDEX 01 00:02:65
  TRACK 05 AUDIO
    TITLE "5:cjc004_5708"
    INDEX 01 00:03:15
  TRACK 06 AUDIO
    TITLE "0:"
    INDEX 01 00:07:52
  TRACK 07 AUDIO
    TITLE "3:cjc004_5709"
    INDEX 01 00:08:36
  TRACK 08 AUDIO
    TITLE "0:"
    INDEX 01 00:09:59
  TRACK 09 AUDIO
    TITLE "4:cjc004_5710"
    INDEX 01 00:10:10
  TRACK 10 AUDIO
    TITLE "0:"
    INDEX 01 00:11:31
  TRACK 11 AUDIO
    TITLE "5:cjc004_5711"
    INDEX 01 00:11:58
  TRACK 12 AUDIO
    TITLE "0:"
    INDEX 01 00:15:56
  TRACK 13 AUDIO
    TITLE "3:cjc004_5712"
    INDEX 01 00:16:34
  TRACK 14 AUDIO
    TITLE "0:"
    INDEX 01 00:17:49
  TRACK 15 AUDIO
    TITLE "4:cjc004_5713"
    INDEX 01 00:18:05
  TRACK 16 AUDIO
    TITLE "0:"
    INDEX 01 00:19:30
  TRACK 17 AUDIO
    TITLE "5:cjc004_5714"
    INDEX 01 00:19:62
  TRACK 18 AUDIO
    TITLE "0:"
    INDEX 01 00:23:22
  TRACK 19 AUDIO
    TITLE "3:cjc004_5715"
    INDEX 01 00:24:04
  TRACK 20 AUDIO
    TITLE "0:"
    INDEX 01 00:25:11
  TRACK 21 AUDIO
    TITLE "4:cjc004_5716"
    INDEX 01 00:25:43
  TRACK 22 AUDIO
    TITLE "0:"
    INDEX 01 00:26:58
  TRACK 23 AUDIO
    TITLE "5:cjc004_5717"
    INDEX 01 00:27:14
  TRACK 24 AUDIO
    TITLE "0:"
    INDEX 01 00:31:02
  TRACK 25 AUDIO
    TITLE "3:cjc004_5718"
    INDEX 01 00:31:59
  TRACK 26 AUDIO
    TITLE "0:"
    INDEX 01 00:32:68
  TRACK 27 AUDIO
    TITLE "4:cjc004_5719"
    INDEX 01 00:33:26
  TRACK 28 AUDIO
    TITLE "0:"
    INDEX 01 00:34:38
  TRACK 29 AUDIO
    TITLE "5:cjc004_5720"
    INDEX 01 00:34:69
  TRACK 30 AUDIO
    TITLE "0:"
    INDEX 01 00:39:35
  TRACK 31 AUDIO
    TITLE "3:cjc004_5721"
    INDEX 01 00:40:15
  TRACK 32 AUDIO
    TITLE "0:"
    INDEX 01 00:41:44
  TRACK 33 AUDIO
    TITLE "4:cjc004_5722"
    INDEX 01 00:41:69
  TRACK 34 AUDIO
    TITLE "0:"
    INDEX 01 00:43:46
  TRACK 35 AUDIO
    TITLE "5:cjc004_5723"
    INDEX 01 00:44:05
  TRACK 36 AUDIO
    TITLE "0:"
    INDEX 01 00:48:57
  TRACK 37 AUDIO
    TITLE "3:cjc004_5724"
    INDEX 01 00:49:35
  TRACK 38 AUDIO
    TITLE "0:"
    INDEX 01 00:50:41
  TRACK 39 AUDIO
    TITLE "4:cjc004_5725"
    INDEX 01 00:50:68
  TRACK 40 AUDIO
    TITLE "0:"
    INDEX 01 00:52:02
  TRACK 41 AUDIO
    TITLE "5:cjc004_5726"
    INDEX 01 00:52:28
  TRACK 42 AUDIO
    TITLE "0:"
    INDEX 01 00:57:35
  TRACK 43 AUDIO
    TITLE "3:cjc004_5727"
    INDEX 01 00:58:17
  TRACK 44 AUDIO
    TITLE "0:"
    INDEX 01 00:59:26
  TRACK 45 AUDIO
    TITLE "4:cjc004_5728"
    INDEX 01 00:59:57
  TRACK 46 AUDIO
    TITLE "0:"
    INDEX 01 01:01:13
  TRACK 47 AUDIO
    TITLE "5:cjc004_5729"
    INDEX 01 01:01:36
  TRACK 48 AUDIO
    TITLE "0:"
    INDEX 01 01:05:44
  TRACK 49 AUDIO
    TITLE "3:cjc004_5730"
    INDEX 01 01:06:26
  TRACK 50 AUDIO
    TITLE "0:"
    INDEX 01 01:07:43
  TRACK 51 AUDIO
    TITLE "4:cjc004_5731"
    INDEX 01 01:08:01
  TRACK 52 AUDIO
    TITLE "0:"
    INDEX 01 01:09:61
  TRACK 53 AUDIO
    TITLE "5:cjc004_5732"
    INDEX 01 01:10:08
  TRACK 54 AUDIO
    TITLE "0:"
    INDEX 01 01:15:17
  TRACK 55 AUDIO
    TITLE "3:cjc004_5733"
    INDEX 01 01:15:68
  TRACK 56 AUDIO
    TITLE "0:"
    INDEX 01 01:17:04
  TRACK 57 AUDIO
    TITLE "4:cjc004_5734"
    INDEX 01 01:17:33
  TRACK 58 AUDIO
    TITLE "0:"
    INDEX 01 01:19:17
  TRACK 59 AUDIO
    TITLE "5:cjc004_5735"
    INDEX 01 01:19:44
  TRACK 60 AUDIO
    TITLE "0:"
    INDEX 01 01:24:20
